<svg id="Capa_1" enable-background="new 0 0 512.18 512.18" height="512" viewBox="0 0 512.18 512.18" width="512" xmlns="http://www.w3.org/2000/svg"><g><circle cx="186.09" cy="436.09" r="10"/><path d="m89.019 443.161c1.876 1.875 4.419 2.929 7.071 2.929h45c5.522 0 10-4.478 10-10s-4.478-10-10-10h-40.857l-11.846-11.846 33.575-58.154h140.508l-32.781 27.317c-2.28 1.9-3.599 4.715-3.599 7.683s1.318 5.782 3.599 7.683l32.781 27.317h-31.38c-5.522 0-10 4.478-10 10s4.478 10 10 10h55.379l33.219 27.683c2.957 2.465 7.105 3.031 10.643 1.373 3.515-1.646 5.759-5.176 5.759-9.056v-20h80c2.652 0 5.195-1.054 7.071-2.929l86.09-86.09c3.201-3.202 3.853-8.155 1.587-12.075-117.14-202.864-78.233-135.485-88.388-153.072l7.364-42.612c.661-3.824-.949-7.685-4.132-9.904-3.182-2.22-7.36-2.399-10.722-.459l-17.32 10-62.27-107.859c-1.786-3.094-5.088-5-8.66-5-14.442 0-115.004 0-141.24 0-3.572 0-6.874 1.906-8.66 5l-77.461 134.167-40.591 14.928c-3.642 1.339-6.18 4.664-6.512 8.53-.331 3.865 1.604 7.574 4.964 9.515l17.319 10-73.189 126.77c-2.263 3.92-1.611 8.871 1.589 12.071 7.394 7.395 75.987 75.987 86.09 86.09zm44.49-107.071 36.291-62.859 17.32 10c3.361 1.939 7.54 1.762 10.722-.459 3.183-2.22 4.793-6.081 4.132-9.904l-7.364-42.612 61.48-106.486 46.29 80.18-17.32 10c-3.36 1.94-5.295 5.648-4.964 9.515.332 3.865 2.87 7.19 6.511 8.53l40.581 14.926 51.483 89.17h-42.58v-20c0-3.88-2.244-7.41-5.759-9.056s-7.664-1.109-10.643 1.373l-33.219 27.683h-152.961zm278.438 90h-85.857c-5.522 0-10 4.478-10 10v8.649l-64.38-53.649 64.38-53.649v8.649c0 5.522 4.478 10 10 10h155.857zm70.652-90h-80.835l-45.256-78.385 40.051 14.731c2.759 1.015 5.857.772 8.451-.726 2.57-1.484 4.349-4.033 4.854-6.957l7.266-42.046zm-161.662-280 64.383 111.52c2.769 4.795 8.897 6.414 13.66 3.66l7.491-4.325c-1.408 8.15-12.581 72.795-14.271 82.578l-78.651-28.927 7.492-4.326c4.783-2.762 6.422-8.877 3.66-13.66l-84.591-146.52zm-129.694 0h25.773l27.527 47.679-55.254 95.701-7.266-42.044c-.505-2.924-2.283-5.473-4.854-6.957-2.57-1.485-5.667-1.749-8.451-.726l-40.051 14.73zm-94.393 163.48c2.762-4.783 1.123-10.898-3.66-13.66l-7.49-4.325 78.66-28.928c1.419 8.208 12.505 72.356 14.271 82.578l-7.491-4.325c-4.79-2.766-10.904-1.113-13.66 3.66l-83.734 145.034-51.249-51.249z"/></g></svg>