<svg id="Layer_1" data-name="Layer 1" xmlns="http://www.w3.org/2000/svg" viewBox="0 0 612 612"><path d="M590.46,143.77a33.4,33.4,0,0,0-24.58-32.16,33.33,33.33,0,0,0-22.23-44.45A33,33,0,0,0,546,54.88a33.37,33.37,0,0,0-33.33-33.34H392.89a164.91,164.91,0,0,0-72.75,17.18L310,43.77H188.22a33.27,33.27,0,0,0-12.29,2.35,33.33,33.33,0,0,0-64.32,0A33.33,33.33,0,0,0,67.16,68.35,33,33,0,0,0,54.88,66,33.37,33.37,0,0,0,21.54,99.32V219.11c0,46.83,20.15,77.44,22.23,82.85V423.78a33.27,33.27,0,0,0,2.35,12.29,33.33,33.33,0,0,0,0,64.32,33.33,33.33,0,0,0,22.23,44.45A33,33,0,0,0,66,557.12a33.37,33.37,0,0,0,33.33,33.34H126.1a11.12,11.12,0,0,0,0-22.23H99.32a11.11,11.11,0,1,1,0-22.22h22.23a11.11,11.11,0,0,0,0-22.22H77.1a11.12,11.12,0,0,1,0-22.23h44.45a11.11,11.11,0,0,0,0-22.22H54.88a11.11,11.11,0,0,1,0-22.22h66.67a11.12,11.12,0,0,0,0-22.23H77.1a11.11,11.11,0,0,1,0-22.22H188.22a11.11,11.11,0,0,0,11.11-11.11V390.45h28a68.74,68.74,0,0,1,62,38.27,11.1,11.1,0,0,0,9.95,6.17h91.12v100A33.24,33.24,0,0,0,392.36,546h-70.8a11.11,11.11,0,0,0-5,1.17l-12.41,6.21a142.62,142.62,0,0,1-62.85,14.84H225.89a11.12,11.12,0,0,0,0,22.23h15.44a164.88,164.88,0,0,0,72.75-17.18l10.1-5h99.6a33.27,33.27,0,0,0,12.29-2.35,33.33,33.33,0,0,0,64.32,0,33.33,33.33,0,0,0,44.45-22.23A33,33,0,0,0,557.12,546a33.37,33.37,0,0,0,33.34-33.33V379.34a11.11,11.11,0,0,0-1.06-4.72,166.15,166.15,0,0,0-16.12-54.48l-5-10.1V188.22a33.27,33.27,0,0,0-2.35-12.29A33.39,33.39,0,0,0,590.46,143.77ZM177.11,390.45H77.1A33.24,33.24,0,0,0,66,392.36v-93a11.17,11.17,0,0,0-1.17-5c-2.53-6.45-21-33.69-21-75.25V99.32a11.11,11.11,0,1,1,22.22,0v22.23a11.11,11.11,0,0,0,22.22,0V77.1a11.12,11.12,0,0,1,22.23,0v44.45a11.11,11.11,0,0,0,22.22,0V54.88a11.11,11.11,0,1,1,22.22,0v66.67a11.12,11.12,0,0,0,22.23,0V77.1a11.11,11.11,0,0,1,22.22,0V188.22a11.11,11.11,0,0,0,11.11,11.11h11.11v28a69.64,69.64,0,0,1-38.27,62,11.1,11.1,0,0,0-6.17,9.95Zm50.22-22.22h-28v-62.3a90.86,90.86,0,0,0,44.44-78.6v-28h62.3a90.86,90.86,0,0,0,78.6,44.44h28v62.3a90.86,90.86,0,0,0-44.44,78.6v28h-62.3a90.86,90.86,0,0,0-78.6-44.44Zm340.9,144.45a11.11,11.11,0,0,1-22.22,0V490.45a11.11,11.11,0,1,0-22.22,0V534.9a11.12,11.12,0,0,1-22.23,0V490.45a11.11,11.11,0,0,0-22.22,0v66.67a11.11,11.11,0,1,1-22.22,0V490.45a11.12,11.12,0,0,0-22.23,0V534.9a11.11,11.11,0,0,1-22.22,0V423.78a11.11,11.11,0,0,0-11.11-11.11H390.45v-28a68.74,68.74,0,0,1,38.27-62.05,11.1,11.1,0,0,0,6.17-9.95V221.55h100A33.24,33.24,0,0,0,546,219.64v93a11.17,11.17,0,0,0,1.17,5l6.21,12.4a142.62,142.62,0,0,1,14.84,62.85Zm-11.11-357.8H490.45a11.12,11.12,0,0,0,0,22.23H534.9a11.11,11.11,0,1,1,0,22.22H423.78a11.11,11.11,0,0,0-11.11,11.11v11.11h-28a69.64,69.64,0,0,1-62.05-38.27,11.1,11.1,0,0,0-9.95-6.17H221.55V77.1A33.24,33.24,0,0,0,219.64,66h93a11.17,11.17,0,0,0,5-1.17c6.44-2.53,33.68-21,75.25-21H512.68a11.11,11.11,0,1,1,0,22.22H490.45a11.11,11.11,0,0,0,0,22.22H534.9a11.12,11.12,0,0,1,0,22.23H490.45a11.11,11.11,0,0,0,0,22.22h66.67a11.11,11.11,0,1,1,0,22.22Z" style="fill:#0d8140"/><circle cx="177.11" cy="576.01" r="11.11" style="fill:#0d8140"/></svg>