<svg id="Layer_1" data-name="Layer 1" xmlns="http://www.w3.org/2000/svg" viewBox="0 0 612 612"><path d="M386.86,241.56a8.8,8.8,0,0,0-6.48-8.48,8.69,8.69,0,0,0,.62-3.24,8.81,8.81,0,0,0-6.48-8.48,8.69,8.69,0,0,0,.62-3.24,8.79,8.79,0,0,0-8.79-8.78H334.77a43.54,43.54,0,0,0-19.18,4.52l-2.66,1.34H280.8a8.68,8.68,0,0,0-3.23.62,8.79,8.79,0,0,0-17,0,8.79,8.79,0,0,0-11.72,5.86,8.77,8.77,0,0,0-12,8.16v31.59c0,12.34,5.31,20.41,5.86,21.84v32.12a8.73,8.73,0,0,0,.62,3.24,8.79,8.79,0,0,0,0,17,8.69,8.69,0,0,0-.62,3.24,8.8,8.8,0,0,0,6.48,8.48,8.69,8.69,0,0,0-.62,3.24,8.8,8.8,0,0,0,8.79,8.79h7.06a2.93,2.93,0,1,0,0-5.86h-7.06a2.93,2.93,0,1,1,0-5.86h5.86a2.93,2.93,0,1,0,0-5.86H251.51a2.93,2.93,0,1,1,0-5.86h11.72a2.93,2.93,0,1,0,0-5.86H245.65a2.93,2.93,0,0,1,0-5.86h17.58a2.93,2.93,0,0,0,0-5.86H251.51a2.93,2.93,0,1,1,0-5.86H280.8a2.93,2.93,0,0,0,2.93-2.93V306.6h7.39a18.14,18.14,0,0,1,16.36,10.09,2.92,2.92,0,0,0,2.62,1.63h24v26.37a8.67,8.67,0,0,0,.5,2.93H316a2.87,2.87,0,0,0-1.31.31l-3.27,1.63a37.63,37.63,0,0,1-16.57,3.92h-4.07a2.93,2.93,0,0,0,0,5.86h4.07A43.55,43.55,0,0,0,314,354.81l2.66-1.33h26.26a8.9,8.9,0,0,0,3.24-.62,8.79,8.79,0,0,0,17,0,9,9,0,0,0,3.24.62,8.8,8.8,0,0,0,8.48-6.48,8.94,8.94,0,0,0,3.24.62,8.8,8.8,0,0,0,8.79-8.79V303.67a2.89,2.89,0,0,0-.28-1.24,43.83,43.83,0,0,0-4.25-14.37L381,285.4V253.28a8.73,8.73,0,0,0-.62-3.24A8.8,8.8,0,0,0,386.86,241.56Zm-109,65H251.51a8.63,8.63,0,0,0-2.93.51V282.58a2.94,2.94,0,0,0-.31-1.31c-.67-1.7-5.55-8.88-5.55-19.84V229.84a2.93,2.93,0,0,1,5.86,0v5.86a2.93,2.93,0,0,0,5.86,0V224a2.93,2.93,0,0,1,5.86,0V235.7a2.93,2.93,0,0,0,5.86,0V218.12a2.93,2.93,0,0,1,5.86,0V235.7a2.93,2.93,0,0,0,5.86,0V224a2.93,2.93,0,1,1,5.85,0v29.3a2.93,2.93,0,0,0,2.93,2.93h2.93v7.38A18.36,18.36,0,0,1,279.5,280a2.94,2.94,0,0,0-1.62,2.63Zm13.24-5.86h-7.39V284.32a24,24,0,0,0,11.72-20.73v-7.38h16.43a24,24,0,0,0,20.72,11.72H340v16.42a24,24,0,0,0-11.71,20.73v7.38H311.84a24,24,0,0,0-20.72-11.72ZM381,338.83a2.93,2.93,0,0,1-5.86,0V333a2.93,2.93,0,1,0-5.86,0v11.72a2.93,2.93,0,1,1-5.86,0V333a2.93,2.93,0,0,0-5.86,0v17.58a2.93,2.93,0,0,1-5.86,0V333a2.93,2.93,0,0,0-5.86,0v11.72a2.93,2.93,0,0,1-5.86,0v-29.3a2.93,2.93,0,0,0-2.93-2.93h-2.92v-7.38a18.11,18.11,0,0,1,10.09-16.36,2.94,2.94,0,0,0,1.62-2.63v-24h26.37a8.88,8.88,0,0,0,2.93-.5v24.52a2.94,2.94,0,0,0,.31,1.31l1.64,3.27A37.63,37.63,0,0,1,381,307.25Zm-2.93-94.34H360.49a2.93,2.93,0,1,0,0,5.86h11.72a2.93,2.93,0,0,1,0,5.86h-29.3a2.93,2.93,0,0,0-2.93,2.93v2.93H332.6A18.36,18.36,0,0,1,316.24,252a2.92,2.92,0,0,0-2.62-1.63h-24V224a8.67,8.67,0,0,0-.5-2.93h24.53a3,3,0,0,0,1.31-.3c1.7-.67,8.88-5.55,19.84-5.55h31.58a2.93,2.93,0,1,1,0,5.85h-5.86a2.93,2.93,0,0,0,0,5.86h11.72a2.93,2.93,0,0,1,0,5.86H360.49a2.93,2.93,0,1,0,0,5.86h17.58a2.93,2.93,0,0,1,0,5.86Z" style="fill:#0d8140"/><circle cx="277.88" cy="355.53" r="2.93" style="fill:#0d8140"/></svg>